<svg width="24" height="24" viewBox="0 0 24 24" fill="none" xmlns="http://www.w3.org/2000/svg">
<path d="M2.41963 12.7132C2.28345 12.4975 2.21535 12.3897 2.17724 12.2234C2.1486 12.0985 2.1486 11.9015 2.17724 11.7766C2.21535 11.6103 2.28345 11.5025 2.41963 11.2868C3.54504 9.50484 6.89491 5 11.9999 5C17.1049 5 20.4548 9.50484 21.5802 11.2868C21.7164 11.5025 21.7845 11.6103 21.8226 11.7766C21.8512 11.9015 21.8512 12.0985 21.8226 12.2234C21.7845 12.3897 21.7164 12.4975 21.5802 12.7132C20.4548 14.4952 17.1049 19 11.9999 19C6.89491 19 3.54504 14.4952 2.41963 12.7132Z" stroke="#4F4F4F" stroke-width="2" stroke-linecap="round" stroke-linejoin="round"/>
<path d="M11.9999 15C13.6568 15 14.9999 13.6569 14.9999 12C14.9999 10.3431 13.6568 9 11.9999 9C10.3431 9 8.99992 10.3431 8.99992 12C8.99992 13.6569 10.3431 15 11.9999 15Z" stroke="#4F4F4F" stroke-width="2" stroke-linecap="round" stroke-linejoin="round"/>
</svg>
